<?xml version="1.0" encoding="UTF-8" standalone="no"?>
<!-- Created with Inkscape (http://www.inkscape.org/) -->

<svg
   xmlns:xlink="http://www.w3.org/1999/xlink"
   xmlns:dc="http://purl.org/dc/elements/1.1/"
   xmlns:cc="http://creativecommons.org/ns#"
   xmlns:rdf="http://www.w3.org/1999/02/22-rdf-syntax-ns#"
   xmlns:svg="http://www.w3.org/2000/svg"
   xmlns="http://www.w3.org/2000/svg"
   xmlns:sodipodi="http://sodipodi.sourceforge.net/DTD/sodipodi-0.dtd"
   xmlns:inkscape="http://www.inkscape.org/namespaces/inkscape"
   width="250"
   height="250"
   viewBox="0 0 66.145832 66.145835"
   version="1.1"
   id="svg8"
   inkscape:version="0.92.3 (2405546, 2018-03-11)"
   sodipodi:docname="kodi-offline_250px.svg">
  <defs
     id="defs2" />
  <sodipodi:namedview
     id="base"
     pagecolor="#ffffff"
     bordercolor="#666666"
     borderopacity="1.0"
     inkscape:pageopacity="0.0"
     inkscape:pageshadow="2"
     inkscape:zoom="2.144"
     inkscape:cx="75.093284"
     inkscape:cy="126.6508"
     inkscape:document-units="mm"
     inkscape:current-layer="layer11"
     showgrid="false"
     units="px"
     inkscape:window-width="1366"
     inkscape:window-height="705"
     inkscape:window-x="-8"
     inkscape:window-y="-8"
     inkscape:window-maximized="1" />
  <metadata
     id="metadata5">
    <rdf:RDF>
      <cc:Work
         rdf:about="">
        <dc:format>image/svg+xml</dc:format>
        <dc:type
           rdf:resource="http://purl.org/dc/dcmitype/StillImage" />
        <dc:title></dc:title>
      </cc:Work>
    </rdf:RDF>
  </metadata>
  <g
     inkscape:groupmode="layer"
     id="layer6"
     inkscape:label="kodi_logo"
     style="display:inline">
    <path
       d="m 33.171499,0.01500329 c -0.631219,0 -1.292559,0.330607 -1.863679,0.93183359 L 23.70277,8.5518874 c -0.661329,0.6613283 -0.841629,1.0220416 -1.502979,1.6232116 -0.871733,0.721428 -1.262498,1.593151 -1.232437,2.705353 0.08975,3.877679 0.08975,7.695224 0.08975,11.572903 v 12.113973 c 0,0.300614 0,0.541126 0.08975,0.841627 0.240512,0.931834 0.841628,1.142263 1.502977,0.45092 3.607081,-3.607127 6.823443,-6.883611 10.430581,-10.52081 4.088086,-4.088085 8.206233,-8.176183 12.294329,-12.29433 1.232437,-1.202375 1.232437,-2.555057 0,-3.757434 C 41.917899,7.8304598 38.400935,4.4337408 34.974153,0.94683688 34.372927,0.34561029 33.80184,0.01500329 33.170585,0.01500329 M 53.100026,20.034617 c -0.63122,0 -1.232436,0.270507 -1.803568,0.841627 -3.456843,3.486904 -6.943746,6.913685 -10.430638,10.430649 -1.172326,1.172315 -1.172326,2.464874 0,3.667249 3.456831,3.456843 6.883612,6.943745 10.340453,10.400589 1.202387,1.232436 2.464886,1.232436 3.667261,0 3.336595,-3.276487 6.763377,-6.673206 10.039862,-10.039864 0.511021,-0.51102 1.022041,-0.991934 1.232437,-1.683334 v -0.931834 c -0.210407,-0.721428 -0.721427,-1.142264 -1.232437,-1.713385 -3.366658,-3.36667 -6.673204,-6.76339 -10.039862,-10.130046 -0.571121,-0.571122 -1.172326,-0.841629 -1.773508,-0.841629 m -41.722562,1.29256 c -0.39082,-0.150307 -0.601227,0.150307 -0.841629,0.39082 -3.4568412,3.516966 -6.4928464,6.643144 -9.94968923,10.130047 -0.78152769,0.811635 -0.78152769,1.953865 0,2.735415 1.86369213,1.893742 3.75743353,3.757433 5.62112473,5.651175 1.6232117,1.623211 2.8255879,2.85566 4.5089215,4.508921 0.480914,0.450921 0.901728,0.360715 1.142254,-0.210406 0.180414,-0.300614 0.180414,-0.691321 0.180414,-1.022042 V 33.651624 22.950445 c 0,-0.240514 0,-0.541013 -0.08975,-0.751535 -0.06021,-0.39082 -0.210407,-0.721427 -0.571121,-0.871734 m 21.973489,18.516648 c -0.601227,0 -1.29256,0.270507 -1.863691,0.841628 -3.456808,3.486903 -6.883589,7.033918 -10.34043,10.520822 -1.202376,1.202375 -1.202376,2.464873 0,3.667249 3.336596,3.366669 6.703266,6.673204 10.069924,10.039874 0.480917,0.511021 0.991937,1.022041 1.683336,1.232436 h 0.841629 c 0.661327,-0.180413 1.202376,-0.631221 1.683334,-1.112247 3.366658,-3.39672 6.763377,-6.763389 10.160097,-10.160109 1.172325,-1.202376 1.022041,-2.555058 -0.08975,-3.757433 -3.486936,-3.486824 -6.883656,-6.943655 -10.340498,-10.430559 -0.571121,-0.571121 -1.172314,-0.841627 -1.80357,-0.841627 z"
       id="kodi_logo"
       inkscape:connector-curvature="0"
       style="display:inline;fill:#03a9f4;stroke-width:3.00594807" />
  </g>
  <g
     inkscape:groupmode="layer"
     id="layer11"
     inkscape:label="offline">
    <path
       id="kodi_warning"
       d="M 33.072914,4.2573921 0,61.38333 H 66.145833 M 33.072914,16.2839 55.712834,55.37008 H 10.433002 M 30.06629,28.310422 v 12.026511 h 6.013249 V 28.310422 M 30.06629,46.350194 v 6.01325 h 6.013249 v -6.01325"
       inkscape:connector-curvature="0"
       style="fill:#ff0000;fill-opacity:0;stroke-width:3.00662851" />
  </g>
    <animate xlink:href="#kodi_warning"
	   dur="5s" begin="2s"
	   to="0" from="100"
	   repeatCount="indefinite"   
	   calcMode="discrete" attributeName="fill-opacity"/>
</svg>
